<svg xmlns="http://www.w3.org/2000/svg" xmlns:xlink="http://www.w3.org/1999/xlink" xmlns:lucid="lucid" width="1260" height="600"><g transform="translate(-20 -60)" lucid:page-tab-id="0_0"><path d="M0 0h1870.4v1323.2H0z" fill="#fff"/><path d="M260 86c0-3.3 2.7-6 6-6h988c3.3 0 6 2.7 6 6v548c0 3.3-2.7 6-6 6H266c-3.3 0-6-2.7-6-6z" stroke="#248814" stroke-width="3" fill="#fff" fill-opacity="0"/><path d="M260 80h56v56h-56V80z" stroke="#fff" stroke-opacity="0" fill="#248814"/><path d="M291.76 108.3h-1.18v-1.1c-.12-1.73-1.48-3.07-3.2-3.2-1.9-.13-3.54 1.3-3.67 3.2v1.07h-1.17c-.44 0-.8.36-.8.8v6.13c0 .44.36.8.8.8h9.23c.44 0 .8-.36.8-.8v-6.1c0-.44-.36-.8-.8-.8zm-6.4-1.06c.1-1.02 1-1.77 2-1.67.9.08 1.58.77 1.67 1.67v1.06h-3.72zm5.65 7.08h-7.67v-4.42h7.63z" stroke="#fff" stroke-opacity="0" fill="#fff"/><path d="M302.27 105.74c-.08-2.44-1.58-4.47-3.87-5.3-1.58-.46-3.16-.13-4.4.9-.68-1.44-1.47-2.6-2.6-3.75-3.24-3.36-7.94-4.3-12.18-2.4-4.04 1.9-6.4 5.63-6.54 10.05v.7c-3.4.98-5.66 4.08-5.5 7.65v.63c.4 4.28 3.92 7.52 8.2 7.47h26s7.42-.63 7.42-8.1c.04-3.9-2.66-7.2-6.53-7.86zm-.96 14.4h-25.9c-3.47.05-6.3-2.53-6.6-5.97v-.52c-.15-3.05 1.93-5.7 4.92-6.3.38-.12.63-.48.6-.9-.06-.4-.06-.73 0-1.14.07-3.78 2.1-6.94 5.52-8.6 1.25-.56 2.4-.8 3.83-.84 2.62.08 4.87 1.04 6.7 2.94 1.25 1.3 2.04 2.6 2.62 4.3.03.15.1.28.24.37.37.27.87.2 1.12-.17.83-1.18 2.25-1.67 3.62-1.3 1.8.72 2.87 2.4 2.83 4.32-.07.4.22.82.64.9 3.57.36 6.2 3.55 5.82 7.12-.3 3.13-2.7 5.52-5.82 5.85z" stroke="#fff" stroke-opacity="0" fill="#fff"/><use xlink:href="#a" transform="matrix(1,0,0,1,331,100) translate(0 14.4)"/><use xlink:href="#b" transform="matrix(1,0,0,1,331,100) translate(55.5 14.4)"/><use xlink:href="#c" transform="matrix(1,0,0,1,331,100) translate(116.4 14.4)"/><path d="M500 260h60v60h-60v-60z" stroke="#fff" stroke-opacity="0" stroke-width="2" fill="#d86613"/><path d="M548.4 310h-9.86c-.32 0-.57-.16-.7-.44l-13.96-29.16h-5.9c-.44 0-.8-.36-.8-.8v-8.8c0-.44.36-.8.8-.8h12.34c.32 0 .57.16.7.44l13.9 29.16h3.48c.45 0 .8.36.8.8v8.8c0 .44-.35.8-.8.8zm-9.35-1.6h8.55v-7.2h-3.2c-.32 0-.58-.16-.7-.44l-13.9-29.16h-11v7.2h5.6c.3 0 .57.16.73.44z" stroke="#fff" stroke-opacity="0" stroke-width="2" fill="#fff"/><path d="M521.98 310h-10.4c-.28 0-.52-.15-.68-.37-.16-.26-.16-.56-.04-.8l10.9-22.73c.1-.3.4-.46.7-.46.3 0 .58.17.72.44l5.2 10.72c.13.22.13.46 0 .7l-5.68 12c-.1.3-.4.5-.72.5zm-9.12-1.6h8.62l5.3-11.2-4.3-8.93z" stroke="#fff" stroke-opacity="0" stroke-width="2" fill="#fff"/><use xlink:href="#d" transform="matrix(1,0,0,1,470,329) translate(35.12345679012346 17.77777777777778)"/><use xlink:href="#e" transform="matrix(1,0,0,1,470,329) translate(19.907407407407405 44.44444444444444)"/><path d="M840 120h60v60h-60v-60z" stroke="#fff" stroke-opacity="0" stroke-width="2" fill="#3b48cc"/><path d="M878.76 142.58c0-2.3-4.55-3.4-8.8-3.4-4.25 0-8.8 1.1-8.8 3.4 0 .13.02.22.03.35v14.43c-.04 2.42 4.53 3.43 8.8 3.43 4.28 0 8.8-1.07 8.8-3.38v-14.84zm-8.78-1.8c4.66 0 7.2 1.28 7.2 1.8s-2.53 1.8-7.2 1.8c-4.7 0-7.2-1.26-7.2-1.8 0-.52 2.52-1.8 7.2-1.8zm7.2 16.64c0 .52-2.53 1.77-7.2 1.77-4.68 0-7.2-1.26-7.2-1.78v-2.52c1.68.92 4.52 1.36 7.2 1.36 2.68 0 5.5-.44 7.2-1.34zm0-4.56c0 .52-2.53 1.8-7.2 1.8-4.7 0-7.2-1.28-7.2-1.8h.02v-3.04c1.7.9 4.52 1.34 7.2 1.34 2.68 0 5.48-.43 7.2-1.32zm0-5.1c0 .53-2.53 1.82-7.2 1.82-4.7 0-7.2-1.3-7.2-1.8h.02v-3.12c1.7.9 4.5 1.3 7.2 1.3s5.54-.42 7.2-1.35zM852.73 168.4H858v1.6h-7.2c-.44 0-.8-.35-.8-.8V162h1.6v5.26l6-6 1.12 1.14zM890 162v7.2c0 .45-.35.8-.8.8H882v-1.6h5.27l-5.9-5.92 1.12-1.12 5.9 5.9v-5.25zM890 130.8v7.2h-1.6v-5.27l-5.9 5.9-1.14-1.12 5.9-5.9H882V130h7.2c.45 0 .8.36.8.8zM858.72 137.6l-1.12 1.12-6-6V138H850v-7.2c0-.45.36-.8.8-.8h7.2v1.6h-5.27zM857.73 157.17c-4.9-1.76-7.7-4.45-7.7-7.37s2.8-5.6 7.7-7.37l.54 1.5c-4.15 1.5-6.63 3.7-6.63 5.87 0 2.18 2.48 4.36 6.63 5.86zM881.82 157.34l-.5-1.52c4.43-1.5 7.08-3.74 7.08-6.02 0-2.28-2.65-4.53-7.1-6.04l.52-1.5c5.2 1.75 8.18 4.5 8.18 7.54 0 3.03-2.98 5.78-8.18 7.54z" stroke="#fff" stroke-opacity="0" stroke-width="2" fill="#fff"/><use xlink:href="#f" transform="matrix(1,0,0,1,810,189) translate(19.29012345679012 17.77777777777778)"/><use xlink:href="#g" transform="matrix(1,0,0,1,810,189) translate(36.60493827160494 44.44444444444444)"/><path d="M300 250h80v80h-80v-80z" stroke="#fff" stroke-opacity="0" fill="#693cc5"/><path d="M351.74 315.6c-.24 0-.43-.1-.62-.2-.3-.2-.45-.5-.45-.86v-49.08c0-.36.2-.72.5-.92.33-.2.73-.2 1.07-.05l13.88 6.8c.37.15.6.5.6.92v37.7c0 .52-.28.93-.75 1.08l-13.86 4.6h-.36zm1.08-48.4v45.85l11.72-3.9V272.9zM328.26 315.6h-.34l-13.87-4.6c-.45-.15-.73-.6-.72-1.07v-37.7c0-.42.23-.78.6-.93l13.86-6.8c.35-.17.73-.17 1.07.04.32.2.5.56.5.92v49.08c0 .35-.16.66-.45.87-.2.16-.4.2-.66.2zm-12.8-6.4l11.74 3.9v-45.9l-11.74 5.74z" stroke="#fff" stroke-opacity="0" fill="#fff"/><path d="M350.67 279.33h-3.2v-2.13h3.2zm-6.4 0h-3.2v-2.13h3.2zm-6.4 0h-3.2v-2.13h3.2zm-6.4 0h-3.2v-2.13h3.2zM350.67 302.8h-3.2v-2.13h3.2zm-6.4 0h-3.2v-2.13h3.2zm-6.4 0h-3.2v-2.13h3.2zm-6.4 0h-3.2v-2.13h3.2zM335.32 293.67l-4-3.42c-.46-.38-.5-1.06-.13-1.5.03-.05.06-.1.1-.13l4-3.42 1.4 1.62-3.06 2.65 3.05 2.6zM344.7 293.67l-1.4-1.62 3.05-2.58-3.05-2.6 1.38-1.67 4 3.4c.46.4.5 1.07.13 1.52-.03.04-.06.08-.1.1z" stroke="#fff" stroke-opacity="0" fill="#fff"/><path d="M336.86 295.9l4.24-12.52 2.02.7-4.23 12.52-2.04-.7z" stroke="#fff" stroke-opacity="0" stroke-width=".32" fill="#fff"/><use xlink:href="#h" transform="matrix(1,0,0,1,270,339) translate(8.302469135802468 17.77777777777778)"/><use xlink:href="#i" transform="matrix(1,0,0,1,270,339) translate(95.89506172839506 17.77777777777778)"/><use xlink:href="#j" transform="matrix(1,0,0,1,270,339) translate(26.203703703703702 44.44444444444444)"/><path d="M381 290h100.5" stroke="#5e5e5e" stroke-width="2" fill="none"/><path d="M381.03 291H380v-2h1.03z" fill="#5e5e5e"/><path d="M496.76 290l-14.26 4.64v-9.28z" stroke="#5e5e5e" stroke-width="2" fill="#5e5e5e"/><path d="M40 205h72.6v170H40V205zM117.25 205H190v170h-72.75V205z" fill="#29aae1"/><path d="M57.85 216.9c1.95 0 1.95 0 1.95 1.7v10.37c0 1.7 0 1.7-1.95 1.7s-1.95 0-1.95-1.7V218.6c0-1.7 0-1.7 1.95-1.7zM67 216.9c2.1 0 2.1 0 2.1 1.7v10.37c0 1.7 0 1.7-2.1 1.7-1.95 0-1.95 0-1.95-1.7V218.6c0-1.7 0-1.7 1.95-1.7zM85.15 216.9c1.95 0 1.95 0 1.95 1.7v10.37c0 1.7 0 1.7-1.95 1.7s-1.95 0-1.95-1.7V218.6c0-1.7 0-1.7 1.95-1.7zM93.7 216.9c2.1 0 2.1 0 2.1 1.7v10.37c0 1.7 0 1.7-2.1 1.7-1.95 0-1.95 0-1.95-1.7V218.6c0-1.7 0-1.7 1.95-1.7zM57.7 236.45h.9c1.5 0 1.5 0 1.5 1.53v8.16c0 1.36 0 1.36-1.5 1.36h-.9c-1.5 0-1.5 0-1.5-1.36v-8.16c0-1.53 0-1.53 1.5-1.53zM67 236.45h.9c1.5 0 1.5 0 1.5 1.53v8.16c0 1.36 0 1.36-1.5 1.36H67c-1.5 0-1.5 0-1.5-1.36v-8.16c0-1.53 0-1.53 1.5-1.53zM85.3 236.45h.9c1.5 0 1.5 0 1.5 1.53v8.16c0 1.36 0 1.36-1.5 1.36h-.9c-1.5 0-1.5 0-1.5-1.36v-8.16c0-1.53 0-1.53 1.5-1.53zM94 236.45h.9c1.65 0 1.65 0 1.65 1.53v8.16c0 1.36 0 1.36-1.65 1.36H94c-1.5 0-1.5 0-1.5-1.36v-8.16c0-1.53 0-1.53 1.5-1.53zM68.05 353.24h33.45c1.65 0 1.65 0 1.65 1.36 0 1.53 0 1.53-1.65 1.53H68.05c-1.65 0-1.65 0-1.65-1.53 0-1.36 0-1.36 1.65-1.36zM68.05 359.02h33.45c1.65 0 1.65 0 1.65 1.53 0 1.36 0 1.36-1.65 1.36H68.05c-1.65 0-1.65 0-1.65-1.35 0-1.53 0-1.53 1.65-1.53zM68.05 363.95h33.45c1.65 0 1.65 0 1.65 1.36 0 1.37 0 1.37-1.65 1.37H68.05c-1.65 0-1.65 0-1.65-1.36 0-1.35 0-1.35 1.65-1.35zM146.8 354.43h33.45c1.65 0 1.65 0 1.65 1.36 0 1.35 0 1.35-1.65 1.35H146.8c-1.65 0-1.65 0-1.65-1.36 0-1.37 0-1.37 1.65-1.37zM146.8 360.2h33.45c1.65 0 1.65 0 1.65 1.37 0 1.36 0 1.36-1.65 1.36H146.8c-1.65 0-1.65 0-1.65-1.36s0-1.36 1.65-1.36zM146.8 364.97h33.45c1.65 0 1.65 0 1.65 1.53 0 1.36 0 1.36-1.65 1.36H146.8c-1.65 0-1.65 0-1.65-1.36 0-1.53 0-1.53 1.65-1.53zM147.85 215.37h32.7v31.96h-32.7v-31.96z" fill="#fff"/><path d="M151.75 217.92h3.9v5.78h-3.9v-5.78zM162.25 217.92h3.9v5.78h-3.9v-5.78zM172.9 217.92h3.9v5.78h-3.9v-5.78zM151.9 229.48h4.05v5.6h-4.05v-5.6zM162.4 229.48h4.05v5.6h-4.05v-5.6zM172.9 229.48h3.9v5.6h-3.9v-5.6zM152.05 239.85h3.9v5.6h-3.9v-5.6zM162.55 239.85h3.9v5.6h-3.9v-5.6zM173.05 239.85h4.05v5.6h-4.05v-5.6z" fill="#54bbe7"/><use xlink:href="#k" transform="matrix(1,0,0,1,10,375) translate(52.65432098765432 19.444444444444443)"/><path d="M191 290h90.5" stroke="#5e5e5e" stroke-width="2" fill="none"/><path d="M191.03 291H190v-2h1.03z" fill="#5e5e5e"/><path d="M296.76 290l-14.26 4.64v-9.28z" stroke="#5e5e5e" stroke-width="2" fill="#5e5e5e"/><path d="M490 405h70v70h-70v-70z" stroke="#fff" stroke-opacity="0" stroke-width="2" fill="#d86613"/><path d="M546.47 463.33h-11.5c-.38 0-.68-.18-.83-.5l-16.28-34.03H511c-.53 0-.94-.42-.94-.93V417.6c0-.5.4-.93.93-.93h14.37c.37 0 .67.18.82.5l16.2 34.03h4.07c.52 0 .93.42.93.93v10.27c0 .5-.4.93-.93.93zm-10.9-1.86h9.96v-8.4h-3.73c-.37 0-.67-.2-.82-.52l-16.2-34.02H511.9v8.4h6.54c.37 0 .67.2.86.52z" stroke="#fff" stroke-opacity="0" stroke-width="2" fill="#fff"/><path d="M515.64 463.33h-12.12c-.33 0-.62-.17-.8-.42-.2-.3-.2-.65-.05-.93l12.7-26.52c.15-.34.48-.54.83-.54.37 0 .68.2.85.52l6.07 12.5c.14.27.14.55 0 .83l-6.63 14c-.14.36-.47.58-.86.58zM505 461.46h10.06l6.18-13.05-5.02-10.42z" stroke="#fff" stroke-opacity="0" stroke-width="2" fill="#fff"/><use xlink:href="#d" transform="matrix(1,0,0,1,460,484) translate(40.12345679012346 17.77777777777778)"/><use xlink:href="#e" transform="matrix(1,0,0,1,460,484) translate(24.907407407407405 44.44444444444444)"/><path d="M659 440h-80.5" stroke="#5e5e5e" stroke-width="2" fill="none"/><path d="M660 441h-1.03v-2H660z" fill="#5e5e5e"/><path d="M563.24 440l14.26-4.64v9.28z" stroke="#5e5e5e" stroke-width="2" fill="#5e5e5e"/><path d="M489 440H159.45c-3.3 0-6-2.7-6-6v-40.5" stroke="#5e5e5e" stroke-width="2" fill="none"/><path d="M490 441h-1.03v-2H490z" fill="#5e5e5e"/><path d="M153.45 378.24l4.64 14.26h-9.28z" stroke="#5e5e5e" stroke-width="2" fill="#5e5e5e"/><path d="M800 480h80v80h-80v-80z" stroke="#fff" stroke-opacity="0" stroke-width="2" fill="#3b48cc"/><path d="M853.6 523.2l-7.07 7.02c1.35-.37 2.43-.8 3.67-1.5.72.44 1.12 1.13 1.27 1.93 0 1.97-4.14 4.1-10.27 4.95-2.03.27-3.7.38-5.73.38h-1.05c-8.64-.16-14.95-2.88-14.95-5.33.1-.8.54-1.44 1.27-1.92 3.34 1.86 8.78 2.98 14.73 2.98h.1l.62-2.12h-.73c-5.88 0-11.32-1.17-14.2-2.98-1.15-.75-1.8-1.6-1.8-2.3v-4.95c3.26 2.5 9.76 3.78 16 3.78.83 0 1.67 0 2.5-.05l.62-2.13c-1.1.05-2.08.1-3.13.1-9.14 0-16-2.82-16-5.32.1-.86.54-1.5 1.27-1.92 2.94 1.66 7.47 2.67 12.6 2.94l.06-2.13c-5.04-.26-9.6-1.33-12.12-2.98-1.16-.7-1.77-1.54-1.8-2.3v-4.9c3.25 2.5 9.75 3.8 16 3.8h.2l1.17-2.14h-1.38c-9.14 0-16-2.77-16-5.33 0-2.5 6.86-5.33 16-5.33 3.23 0 5.98.32 9.14 1.07h5.9c-3.24-1.98-8.76-3.2-15.03-3.2-8.78 0-18.14 2.6-18.14 7.45v8.58c.07 1.28.62 2.35 1.63 3.15-1 .85-1.56 1.9-1.63 3.2v8.52c.07 1.33.62 2.4 1.63 3.25-1 .8-1.56 1.87-1.63 3.2v8.74c.3 4.68 9.47 7.18 18.14 7.18s17.85-2.5 18.14-7.25V530.6c-.03-1.28-.6-2.4-1.62-3.2 1-.8 1.56-1.92 1.63-3.2zm-2.13 15.97c0 2.5-6.86 5.33-16 5.33s-16-2.77-16-5.33v-4.9c3.26 2.45 9.76 3.78 16 3.78s12.73-1.33 16-3.78z" stroke="#fff" stroke-opacity="0" stroke-width="2" fill="#fff"/><path d="M824 509.35c0 .74-.6 1.34-1.33 1.34-.74 0-1.34-.6-1.34-1.35 0-.73.6-1.33 1.34-1.33.73 0 1.33.6 1.33 1.33zM824 524.3c0 .72-.6 1.32-1.33 1.32-.74 0-1.34-.6-1.34-1.33 0-.75.6-1.35 1.34-1.35.73 0 1.33.6 1.33 1.34zM824 539.22c0 .74-.6 1.33-1.33 1.33-.74 0-1.34-.6-1.34-1.33 0-.73.6-1.33 1.34-1.33.73 0 1.33.6 1.33 1.32zM838.12 534.9c-.18 0-.34-.02-.53-.13-.44-.26-.62-.77-.5-1.24l6-19.96h-6.04c-.6.03-1.07-.44-1.07-1.06 0-.17 0-.35.12-.5l6.4-12.8c.18-.37.52-.6.95-.6h13.87c.6-.02 1.07.45 1.1 1.03.03.14 0 .25-.03.4l-2.74 8.17h6c.57.03 1.06.5 1.06 1.08 0 .3-.1.5-.3.73l-23.47 24.55c-.2.25-.48.36-.83.36zm.67-23.44h5.74c.35 0 .64.15.86.4.18.3.26.62.16.95l-5.14 17.07 18.7-19.5h-4.98c-.6 0-1.1-.43-1.13-1 0-.16 0-.3.07-.4l2.72-8.22h-11.74z" stroke="#fff" stroke-opacity="0" stroke-width="2" fill="#fff"/><use xlink:href="#f" transform="matrix(1,0,0,1,770,569) translate(29.29012345679012 17.77777777777778)"/><use xlink:href="#l" transform="matrix(1,0,0,1,770,569) translate(13.302469135802468 44.44444444444444)"/><path d="M525 476v38c0 3.3 2.7 6 6 6h250.5" stroke="#5e5e5e" stroke-width="2" fill="none"/><path d="M526 476.03h-2V475h2z" fill="#5e5e5e"/><path d="M796.76 520l-14.26 4.64v-9.28z" stroke="#5e5e5e" stroke-width="2" fill="#5e5e5e"/><path d="M660 265.5h120v60H660v-60z" fill="#876929"/><path d="M660 265.5h120v55.9H660z" fill="#d9a741"/><path d="M693.3 273.03h12.78v42.16H693.3v-42.17zM713.6 273.03h12.78v42.16H713.6v-42.17zM733.9 273.03h12.78v42.16H733.9v-42.17zM674.8 284.97v18.3l10.96-9.16-10.95-9.13zM754.2 284.97v18.3l10.97-9.16-10.96-9.13z" fill="#fff"/><use xlink:href="#m" transform="matrix(1,0,0,1,660,325.51020408163265) translate(29.135802469135804 17.77777777777778)"/><path d="M561 290h80.5" stroke="#5e5e5e" stroke-width="2" fill="none"/><path d="M561.03 291H560v-2h1.03z" fill="#5e5e5e"/><path d="M656.76 290l-14.26 4.64v-9.28z" stroke="#5e5e5e" stroke-width="2" fill="#5e5e5e"/><path d="M893.95 321.56H881c-.65 0-1.26-.38-1.52-.98l-18.14-38.9h-7.32c-.9 0-1.7-.75-1.7-1.67v-11.2c0-.94.8-1.7 1.7-1.7h16.15c.7 0 1.26.38 1.52.98l18.1 38.9h4.15c.9 0 1.68.75 1.68 1.73v11.18c0 .92-.78 1.68-1.68 1.68zm-11.9-3.43h10.16v-7.73h-3.5c-.64 0-1.25-.38-1.5-.98l-18.07-38.95h-13.38v7.8h6.67c.7 0 1.3.37 1.56.97z" stroke="#fff" stroke-opacity="0" fill="#d86613"/><path d="M858.8 321.56H845c-.9 0-1.68-.77-1.68-1.7 0-.28.05-.48.17-.72l14.45-30.27c.3-.6.87-.97 1.53-.97.67 0 1.24.33 1.54.94l6.9 14.3c.23.48.23.98 0 1.46l-7.55 16c-.3.6-.87.96-1.54.96zm-11.1-3.4h10.02l6.8-14.27-5.1-10.38z" stroke="#fff" stroke-opacity="0" fill="#d86613"/><path d="M870 337.53c-22.08 0-40-17.92-40-40s17.92-40 40-40 40 17.92 40 40-17.92 40-40 40zm0-76.56c-20.24 0-36.56 16.32-36.56 36.56 0 20.24 16.32 36.56 36.56 36.56 20.24 0 36.56-16.33 36.56-36.57 0-20.24-16.32-36.56-36.56-36.56z" stroke="#fff" stroke-opacity="0" fill="#d86613"/><use xlink:href="#n" transform="matrix(1,0,0,1,800,346.53061224489795) translate(29.907407407407405 17.77777777777778)"/><use xlink:href="#o" transform="matrix(1,0,0,1,800,346.53061224489795) translate(27.469135802469133 44.44444444444444)"/><path d="M781 300.98h30.68" stroke="#5e5e5e" stroke-width="2" fill="none"/><path d="M781.03 301.98H780v-2h1.03z" fill="#5e5e5e"/><path d="M826.94 300.98l-14.26 4.63v-9.26z" stroke="#5e5e5e" stroke-width="2" fill="#5e5e5e"/><path d="M870 256.53V198.5" stroke="#5e5e5e" stroke-width="2" fill="none"/><path d="M871 257.6l-1-.07-1 .04v-1.07h2z" fill="#5e5e5e"/><path d="M870 183.24l4.64 14.26h-9.28z" stroke="#5e5e5e" stroke-width="2" fill="#5e5e5e"/><path d="M870 338.53V434c0 3.3-2.7 6-6 6h-65.5" stroke="#5e5e5e" stroke-width="2" fill="none"/><path d="M870 337.53l1-.03v1.06h-2v-1.1z" fill="#5e5e5e"/><path d="M783.24 440l14.26-4.64v9.28z" stroke="#5e5e5e" stroke-width="2" fill="#5e5e5e"/><path d="M660 400h120v60H660v-60z" fill="#876929"/><path d="M660 400h120v55.9H660z" fill="#d9a741"/><path d="M693.3 407.52h12.78v42.16H693.3v-42.16zM713.6 407.52h12.78v42.16H713.6v-42.16zM733.9 407.52h12.78v42.16H733.9v-42.16zM674.8 419.46v18.3l10.96-9.16-10.95-9.14zM754.2 419.46v18.3l10.97-9.16-10.96-9.14z" fill="#fff"/><g><use xlink:href="#m" transform="matrix(1,0,0,1,660,460) translate(29.135802469135804 17.77777777777778)"/></g><defs><path fill="#248814" d="M137 0h-34L2-248h35l83 218 83-218h36" id="p"/><path fill="#248814" d="M24-231v-30h32v30H24zM24 0v-190h32V0H24" id="q"/><path fill="#248814" d="M114-163C36-179 61-72 57 0H25l-1-190h30c1 12-1 29 2 39 6-27 23-49 58-41v29" id="r"/><path fill="#248814" d="M59-47c-2 24 18 29 38 22v24C64 9 27 4 27-40v-127H5v-23h24l9-43h21v43h35v23H59v120" id="s"/><path fill="#248814" d="M84 4C-5 8 30-112 23-190h32v120c0 31 7 50 39 49 72-2 45-101 50-169h31l1 190h-30c-1-10 1-25-2-33-11 22-28 36-60 37" id="t"/><path fill="#248814" d="M141-36C126-15 110 5 73 4 37 3 15-17 15-53c-1-64 63-63 125-63 3-35-9-54-41-54-24 1-41 7-42 31l-33-3c5-37 33-52 76-52 45 0 72 20 72 64v82c-1 20 7 32 28 27v20c-31 9-61-2-59-35zM48-53c0 20 12 33 32 33 41-3 63-29 60-74-43 2-92-5-92 41" id="u"/><path fill="#248814" d="M24 0v-261h32V0H24" id="v"/><g id="a"><use transform="matrix(0.05,0,0,0.05,0,0)" xlink:href="#p"/><use transform="matrix(0.05,0,0,0.05,11.65,0)" xlink:href="#q"/><use transform="matrix(0.05,0,0,0.05,15.600000000000001,0)" xlink:href="#r"/><use transform="matrix(0.05,0,0,0.05,21.55,0)" xlink:href="#s"/><use transform="matrix(0.05,0,0,0.05,26.55,0)" xlink:href="#t"/><use transform="matrix(0.05,0,0,0.05,36.55,0)" xlink:href="#u"/><use transform="matrix(0.05,0,0,0.05,46.55,0)" xlink:href="#v"/></g><path fill="#248814" d="M30-248c87 1 191-15 191 75 0 78-77 80-158 76V0H30v-248zm33 125c57 0 124 11 124-50 0-59-68-47-124-48v98" id="w"/><path fill="#248814" d="M108 0H70L1-190h34L89-25l56-165h34" id="x"/><path fill="#248814" d="M100-194c63 0 86 42 84 106H49c0 40 14 67 53 68 26 1 43-12 49-29l28 8c-11 28-37 45-77 45C44 4 14-33 15-96c1-61 26-98 85-98zm52 81c6-60-76-77-97-28-3 7-6 17-6 28h103" id="y"/><g id="b"><use transform="matrix(0.05,0,0,0.05,0,0)" xlink:href="#w"/><use transform="matrix(0.05,0,0,0.05,12,0)" xlink:href="#r"/><use transform="matrix(0.05,0,0,0.05,17.95,0)" xlink:href="#q"/><use transform="matrix(0.05,0,0,0.05,21.9,0)" xlink:href="#x"/><use transform="matrix(0.05,0,0,0.05,30.899999999999995,0)" xlink:href="#u"/><use transform="matrix(0.05,0,0,0.05,40.9,0)" xlink:href="#s"/><use transform="matrix(0.05,0,0,0.05,45.9,0)" xlink:href="#y"/></g><path fill="#248814" d="M212-179c-10-28-35-45-73-45-59 0-87 40-87 99 0 60 29 101 89 101 43 0 62-24 78-52l27 14C228-24 195 4 139 4 59 4 22-46 18-125c-6-104 99-153 187-111 19 9 31 26 39 46" id="z"/><path fill="#248814" d="M100-194c62-1 85 37 85 99 1 63-27 99-86 99S16-35 15-95c0-66 28-99 85-99zM99-20c44 1 53-31 53-75 0-43-8-75-51-75s-53 32-53 75 10 74 51 75" id="A"/><path fill="#248814" d="M85-194c31 0 48 13 60 33l-1-100h32l1 261h-30c-2-10 0-23-3-31C134-8 116 4 85 4 32 4 16-35 15-94c0-66 23-100 70-100zm9 24c-40 0-46 34-46 75 0 40 6 74 45 74 42 0 51-32 51-76 0-42-9-74-50-73" id="B"/><g id="c"><use transform="matrix(0.05,0,0,0.05,0,0)" xlink:href="#z"/><use transform="matrix(0.05,0,0,0.05,12.950000000000001,0)" xlink:href="#v"/><use transform="matrix(0.05,0,0,0.05,16.900000000000002,0)" xlink:href="#A"/><use transform="matrix(0.05,0,0,0.05,26.900000000000002,0)" xlink:href="#t"/><use transform="matrix(0.05,0,0,0.05,36.900000000000006,0)" xlink:href="#B"/></g><path fill="#333" d="M205 0l-28-72H64L36 0H1l101-248h38L239 0h-34zm-38-99l-47-123c-12 45-31 82-46 123h93" id="C"/><path fill="#333" d="M266 0h-40l-56-210L115 0H75L2-248h35L96-30l15-64 43-154h32l59 218 59-218h35" id="D"/><path fill="#333" d="M185-189c-5-48-123-54-124 2 14 75 158 14 163 119 3 78-121 87-175 55-17-10-28-26-33-46l33-7c5 56 141 63 141-1 0-78-155-14-162-118-5-82 145-84 179-34 5 7 8 16 11 25" id="E"/><g id="d"><use transform="matrix(0.06172839506172839,0,0,0.06172839506172839,0,0)" xlink:href="#C"/><use transform="matrix(0.06172839506172839,0,0,0.06172839506172839,14.012345679012345,0)" xlink:href="#D"/><use transform="matrix(0.06172839506172839,0,0,0.06172839506172839,34.938271604938265,0)" xlink:href="#E"/></g><path fill="#333" d="M30 0v-248h33v221h125V0H30" id="F"/><path fill="#333" d="M141-36C126-15 110 5 73 4 37 3 15-17 15-53c-1-64 63-63 125-63 3-35-9-54-41-54-24 1-41 7-42 31l-33-3c5-37 33-52 76-52 45 0 72 20 72 64v82c-1 20 7 32 28 27v20c-31 9-61-2-59-35zM48-53c0 20 12 33 32 33 41-3 63-29 60-74-43 2-92-5-92 41" id="G"/><path fill="#333" d="M210-169c-67 3-38 105-44 169h-31v-121c0-29-5-50-35-48C34-165 62-65 56 0H25l-1-190h30c1 10-1 24 2 32 10-44 99-50 107 0 11-21 27-35 58-36 85-2 47 119 55 194h-31v-121c0-29-5-49-35-48" id="H"/><path fill="#333" d="M115-194c53 0 69 39 70 98 0 66-23 100-70 100C84 3 66-7 56-30L54 0H23l1-261h32v101c10-23 28-34 59-34zm-8 174c40 0 45-34 45-75 0-40-5-75-45-74-42 0-51 32-51 76 0 43 10 73 51 73" id="I"/><path fill="#333" d="M85-194c31 0 48 13 60 33l-1-100h32l1 261h-30c-2-10 0-23-3-31C134-8 116 4 85 4 32 4 16-35 15-94c0-66 23-100 70-100zm9 24c-40 0-46 34-46 75 0 40 6 74 45 74 42 0 51-32 51-76 0-42-9-74-50-73" id="J"/><g id="e"><use transform="matrix(0.06172839506172839,0,0,0.06172839506172839,0,0)" xlink:href="#F"/><use transform="matrix(0.06172839506172839,0,0,0.06172839506172839,12.345679012345679,0)" xlink:href="#G"/><use transform="matrix(0.06172839506172839,0,0,0.06172839506172839,24.691358024691358,0)" xlink:href="#H"/><use transform="matrix(0.06172839506172839,0,0,0.06172839506172839,43.148148148148145,0)" xlink:href="#I"/><use transform="matrix(0.06172839506172839,0,0,0.06172839506172839,55.49382716049382,0)" xlink:href="#J"/><use transform="matrix(0.06172839506172839,0,0,0.06172839506172839,67.8395061728395,0)" xlink:href="#G"/></g><path fill="#333" d="M9 0v-24l116-142H16v-24h144v24L44-24h123V0H9" id="K"/><path fill="#333" d="M100-194c62-1 85 37 85 99 1 63-27 99-86 99S16-35 15-95c0-66 28-99 85-99zM99-20c44 1 53-31 53-75 0-43-8-75-51-75s-53 32-53 75 10 74 51 75" id="L"/><path fill="#333" d="M117-194c89-4 53 116 60 194h-32v-121c0-31-8-49-39-48C34-167 62-67 57 0H25l-1-190h30c1 10-1 24 2 32 11-22 29-35 61-36" id="M"/><g id="f"><use transform="matrix(0.06172839506172839,0,0,0.06172839506172839,0,0)" xlink:href="#C"/><use transform="matrix(0.06172839506172839,0,0,0.06172839506172839,14.814814814814813,0)" xlink:href="#H"/><use transform="matrix(0.06172839506172839,0,0,0.06172839506172839,33.2716049382716,0)" xlink:href="#G"/><use transform="matrix(0.06172839506172839,0,0,0.06172839506172839,45.61728395061728,0)" xlink:href="#K"/><use transform="matrix(0.06172839506172839,0,0,0.06172839506172839,56.72839506172839,0)" xlink:href="#L"/><use transform="matrix(0.06172839506172839,0,0,0.06172839506172839,69.07407407407408,0)" xlink:href="#M"/></g><path fill="#333" d="M233-177c-1 41-23 64-60 70L243 0h-38l-65-103H63V0H30v-248c88 3 205-21 203 71zM63-129c60-2 137 13 137-47 0-61-80-42-137-45v92" id="N"/><path fill="#333" d="M30-248c118-7 216 8 213 122C240-48 200 0 122 0H30v-248zM63-27c89 8 146-16 146-99s-60-101-146-95v194" id="O"/><g id="g"><use transform="matrix(0.06172839506172839,0,0,0.06172839506172839,0,0)" xlink:href="#N"/><use transform="matrix(0.06172839506172839,0,0,0.06172839506172839,15.987654320987653,0)" xlink:href="#O"/><use transform="matrix(0.06172839506172839,0,0,0.06172839506172839,31.975308641975307,0)" xlink:href="#E"/></g><g id="h"><use transform="matrix(0.06172839506172839,0,0,0.06172839506172839,0,0)" xlink:href="#C"/><use transform="matrix(0.06172839506172839,0,0,0.06172839506172839,14.814814814814813,0)" xlink:href="#H"/><use transform="matrix(0.06172839506172839,0,0,0.06172839506172839,33.2716049382716,0)" xlink:href="#G"/><use transform="matrix(0.06172839506172839,0,0,0.06172839506172839,45.61728395061728,0)" xlink:href="#K"/><use transform="matrix(0.06172839506172839,0,0,0.06172839506172839,56.72839506172839,0)" xlink:href="#L"/><use transform="matrix(0.06172839506172839,0,0,0.06172839506172839,69.07407407407408,0)" xlink:href="#M"/></g><path fill="#333" d="M30-248c87 1 191-15 191 75 0 78-77 80-158 76V0H30v-248zm33 125c57 0 124 11 124-50 0-59-68-47-124-48v98" id="P"/><path fill="#333" d="M33 0v-248h34V0H33" id="Q"/><g id="i"><use transform="matrix(0.06172839506172839,0,0,0.06172839506172839,0,0)" xlink:href="#C"/><use transform="matrix(0.06172839506172839,0,0,0.06172839506172839,14.814814814814813,0)" xlink:href="#P"/><use transform="matrix(0.06172839506172839,0,0,0.06172839506172839,29.629629629629626,0)" xlink:href="#Q"/></g><path fill="#333" d="M143 4C61 4 22-44 18-125c-5-107 100-154 193-111 17 8 29 25 37 43l-32 9c-13-25-37-40-76-40-61 0-88 39-88 99 0 61 29 100 91 101 35 0 62-11 79-27v-45h-74v-28h105v86C228-13 192 4 143 4" id="R"/><path fill="#333" d="M59-47c-2 24 18 29 38 22v24C64 9 27 4 27-40v-127H5v-23h24l9-43h21v43h35v23H59v120" id="S"/><path fill="#333" d="M100-194c63 0 86 42 84 106H49c0 40 14 67 53 68 26 1 43-12 49-29l28 8c-11 28-37 45-77 45C44 4 14-33 15-96c1-61 26-98 85-98zm52 81c6-60-76-77-97-28-3 7-6 17-6 28h103" id="T"/><path fill="#333" d="M206 0h-36l-40-164L89 0H53L-1-190h32L70-26l43-164h34l41 164 42-164h31" id="U"/><path fill="#333" d="M179-190L93 31C79 59 56 82 12 73V49c39 6 53-20 64-50L1-190h34L92-34l54-156h33" id="V"/><g id="j"><use transform="matrix(0.06172839506172839,0,0,0.06172839506172839,0,0)" xlink:href="#R"/><use transform="matrix(0.06172839506172839,0,0,0.06172839506172839,17.28395061728395,0)" xlink:href="#G"/><use transform="matrix(0.06172839506172839,0,0,0.06172839506172839,29.629629629629626,0)" xlink:href="#S"/><use transform="matrix(0.06172839506172839,0,0,0.06172839506172839,35.80246913580247,0)" xlink:href="#T"/><use transform="matrix(0.06172839506172839,0,0,0.06172839506172839,48.148148148148145,0)" xlink:href="#U"/><use transform="matrix(0.06172839506172839,0,0,0.06172839506172839,64.1358024691358,0)" xlink:href="#G"/><use transform="matrix(0.06172839506172839,0,0,0.06172839506172839,76.48148148148148,0)" xlink:href="#V"/></g><path fill="#333" d="M240 0l2-218c-23 76-54 145-80 218h-23L58-218 59 0H30v-248h44l77 211c21-75 51-140 76-211h43V0h-30" id="W"/><path fill="#333" d="M24-231v-30h32v30H24zM24 0v-190h32V0H24" id="X"/><path fill="#333" d="M101-234c-31-9-42 10-38 44h38v23H63V0H32v-167H5v-23h27c-7-52 17-82 69-68v24" id="Y"/><path fill="#333" d="M114-163C36-179 61-72 57 0H25l-1-190h30c1 12-1 29 2 39 6-27 23-49 58-41v29" id="Z"/><g id="k"><use transform="matrix(0.06172839506172839,0,0,0.06172839506172839,0,0)" xlink:href="#W"/><use transform="matrix(0.06172839506172839,0,0,0.06172839506172839,18.456790123456788,0)" xlink:href="#G"/><use transform="matrix(0.06172839506172839,0,0,0.06172839506172839,30.80246913580247,0)" xlink:href="#X"/><use transform="matrix(0.06172839506172839,0,0,0.06172839506172839,35.67901234567901,0)" xlink:href="#M"/><use transform="matrix(0.06172839506172839,0,0,0.06172839506172839,48.02469135802469,0)" xlink:href="#Y"/><use transform="matrix(0.06172839506172839,0,0,0.06172839506172839,54.19753086419753,0)" xlink:href="#Z"/><use transform="matrix(0.06172839506172839,0,0,0.06172839506172839,61.54320987654321,0)" xlink:href="#G"/><use transform="matrix(0.06172839506172839,0,0,0.06172839506172839,73.88888888888889,0)" xlink:href="#H"/><use transform="matrix(0.06172839506172839,0,0,0.06172839506172839,92.34567901234567,0)" xlink:href="#T"/></g><path fill="#333" d="M160-131c35 5 61 23 61 61C221 17 115-2 30 0v-248c76 3 177-17 177 60 0 33-19 50-47 57zm-97-11c50-1 110 9 110-42 0-47-63-36-110-37v79zm0 115c55-2 124 14 124-45 0-56-70-42-124-44v89" id="aa"/><g id="l"><use transform="matrix(0.06172839506172839,0,0,0.06172839506172839,0,0)" xlink:href="#O"/><use transform="matrix(0.06172839506172839,0,0,0.06172839506172839,15.987654320987653,0)" xlink:href="#V"/><use transform="matrix(0.06172839506172839,0,0,0.06172839506172839,27.098765432098766,0)" xlink:href="#M"/><use transform="matrix(0.06172839506172839,0,0,0.06172839506172839,39.44444444444444,0)" xlink:href="#G"/><use transform="matrix(0.06172839506172839,0,0,0.06172839506172839,51.79012345679012,0)" xlink:href="#H"/><use transform="matrix(0.06172839506172839,0,0,0.06172839506172839,70.24691358024691,0)" xlink:href="#L"/><use transform="matrix(0.06172839506172839,0,0,0.06172839506172839,82.5925925925926,0)" xlink:href="#O"/><use transform="matrix(0.06172839506172839,0,0,0.06172839506172839,98.58024691358025,0)" xlink:href="#aa"/></g><path fill="#333" d="M145-31C134-9 116 4 85 4 32 4 16-35 15-94c0-59 17-99 70-100 32-1 48 14 60 33 0-11-1-24 2-32h30l-1 268h-32zM93-21c41 0 51-33 51-76s-8-73-50-73c-40 0-46 35-46 75s5 74 45 74" id="ab"/><path fill="#333" d="M84 4C-5 8 30-112 23-190h32v120c0 31 7 50 39 49 72-2 45-101 50-169h31l1 190h-30c-1-10 1-25-2-33-11 22-28 36-60 37" id="ac"/><g id="m"><use transform="matrix(0.06172839506172839,0,0,0.06172839506172839,0,0)" xlink:href="#ab"/><use transform="matrix(0.06172839506172839,0,0,0.06172839506172839,12.345679012345679,0)" xlink:href="#ac"/><use transform="matrix(0.06172839506172839,0,0,0.06172839506172839,24.691358024691358,0)" xlink:href="#T"/><use transform="matrix(0.06172839506172839,0,0,0.06172839506172839,37.03703703703704,0)" xlink:href="#ac"/><use transform="matrix(0.06172839506172839,0,0,0.06172839506172839,49.382716049382715,0)" xlink:href="#T"/></g><g id="n"><use transform="matrix(0.06172839506172839,0,0,0.06172839506172839,0,0)" xlink:href="#F"/><use transform="matrix(0.06172839506172839,0,0,0.06172839506172839,12.345679012345679,0)" xlink:href="#G"/><use transform="matrix(0.06172839506172839,0,0,0.06172839506172839,24.691358024691358,0)" xlink:href="#H"/><use transform="matrix(0.06172839506172839,0,0,0.06172839506172839,43.148148148148145,0)" xlink:href="#I"/><use transform="matrix(0.06172839506172839,0,0,0.06172839506172839,55.49382716049382,0)" xlink:href="#J"/><use transform="matrix(0.06172839506172839,0,0,0.06172839506172839,67.8395061728395,0)" xlink:href="#G"/></g><path fill="#333" d="M63-220v92h138v28H63V0H30v-248h175v28H63" id="ad"/><path fill="#333" d="M96-169c-40 0-48 33-48 73s9 75 48 75c24 0 41-14 43-38l32 2c-6 37-31 61-74 61-59 0-76-41-82-99-10-93 101-131 147-64 4 7 5 14 7 22l-32 3c-4-21-16-35-41-35" id="ae"/><g id="o"><use transform="matrix(0.06172839506172839,0,0,0.06172839506172839,0,0)" xlink:href="#ad"/><use transform="matrix(0.06172839506172839,0,0,0.06172839506172839,13.518518518518517,0)" xlink:href="#ac"/><use transform="matrix(0.06172839506172839,0,0,0.06172839506172839,25.864197530864196,0)" xlink:href="#M"/><use transform="matrix(0.06172839506172839,0,0,0.06172839506172839,38.20987654320987,0)" xlink:href="#ae"/><use transform="matrix(0.06172839506172839,0,0,0.06172839506172839,49.32098765432099,0)" xlink:href="#S"/><use transform="matrix(0.06172839506172839,0,0,0.06172839506172839,55.49382716049383,0)" xlink:href="#X"/><use transform="matrix(0.06172839506172839,0,0,0.06172839506172839,60.370370370370374,0)" xlink:href="#L"/><use transform="matrix(0.06172839506172839,0,0,0.06172839506172839,72.71604938271605,0)" xlink:href="#M"/></g></defs></g></svg>